HIERARCHY
ROOT Hips
{
  OFFSET 0.0 0.0 0.0
  CHANNELS 6 XPOSITION YPOSITION ZPOSITION ZROTATION XROTATION YROTATION 
  JOINT RightUpLeg
  {
    OFFSET -0.089458038 -0.086670642 0.001016508
    CHANNELS 3 ZROTATION XROTATION YROTATION 
    JOINT RightLeg
    {
      OFFSET 1.524e-006 -0.44256706 0.04075049
      CHANNELS 3 ZROTATION XROTATION YROTATION 
      JOINT RightFoot
      {
        OFFSET 0.001562862 -0.419119812 -0.041630854
        CHANNELS 3 ZROTATION XROTATION YROTATION 
        End Site
        {
          OFFSET 7.5692e-005 -0.04415155 0.084991702
        }
      }
    }
  }
  JOINT Spine
  {
    OFFSET 0.0 0.11890502 0.0
    CHANNELS 3 ZROTATION XROTATION YROTATION 
    JOINT Spine1
    {
      OFFSET 0.0 0.256575052 0.001270508
      CHANNELS 3 ZROTATION XROTATION YROTATION 
      End Site
      {
        OFFSET -0.002899918 0.215084406 0.0252476
      }
      JOINT RightArm
      {
        OFFSET -0.16272758 -0.05365633 0.001021842
        CHANNELS 3 ZROTATION XROTATION YROTATION 
        JOINT RightForeArm
        {
          OFFSET -0.263648698 -0.000263906 -0.014099794
          CHANNELS 3 ZROTATION XROTATION YROTATION 
          End Site
          {
            OFFSET -0.220319092 0.001914652 0.010174732
          }
        }
      }
      JOINT LeftArm
      {
        OFFSET 0.16272758 -0.05365633 0.001020826
        CHANNELS 3 ZROTATION XROTATION YROTATION 
        JOINT LeftForeArm
        {
          OFFSET 0.26260552 -0.000263144 -0.01410081
          CHANNELS 3 ZROTATION XROTATION YROTATION 
          End Site
          {
            OFFSET 0.220897958 0.001915922 0.01017524
          }
        }
      }
    }
  }
  JOINT LeftUpLeg
  {
    OFFSET 0.089458038 -0.086670642 0.001016508
    CHANNELS 3 ZROTATION XROTATION YROTATION 
    JOINT LeftLeg
    {
      OFFSET -3.048e-006 -0.442569346 0.040725598
      CHANNELS 3 ZROTATION XROTATION YROTATION 
      JOINT LeftFoot
      {
        OFFSET -0.002532888 -0.41911778 -0.041605708
        CHANNELS 3 ZROTATION XROTATION YROTATION 
        End Site
        {
          OFFSET -0.00040005 -0.044151042 0.084991194
        }
      }
    }
  }
}
MOTION
Frames: 16
Frame Time: 0.033333
-0.03233674 0.963165110495 0.14149578 1.13246169281 3.80509753284 176.54648378 6.61782791655 8.18918507898 -1.97777497583 0.128773505125 12.5176262202 -1.48521204186 -6.49272062218 -42.6493096871 -0.403120833063 0.843156810878 5.88415588977 1.31704040477 2.64334147885 0.561439255258 0.842740436143 76.4646029659 -9.84668416034 5.3410247965 11.5158816482 20.5361931737 -0.64872773883 -83.4490861092 -13.4147433931 -17.0422884509 -15.8401102702 47.1749827859 7.58741211593 0.281375165707 -16.0644034373 0.717935857895 -0.957411308179 2.20024875125 11.2743209091 -5.25966272934 -26.9216858023 0.614721881139 
-0.03396742 0.963586750495 0.12021058 1.08264912319 3.66898979193 175.560682577 6.14998855982 9.59882257178 -2.34231156335 0.10842647831 12.1300565272 -0.155266621637 -6.24429383546 -42.5260896594 -0.380206882419 0.738663774478 5.33200339727 1.57220474622 2.32268031901 0.806334887536 1.15951479145 75.981831535 -11.0317049059 4.58665473522 11.8199685002 21.934143359 -2.43613787198 -82.3188742167 -14.3155847267 -16.4253943029 -15.96069726 50.3455839194 7.94564785394 -0.312905693474 -15.3285273938 0.180418232966 -0.695565227455 2.7554031119 9.83067846579 -3.52898756253 -25.1868092154 0.458933910629 
-0.03567176 0.963762010495 0.09735058 0.906229499077 3.5807277396 174.886187736 5.53245493526 10.7660455519 -2.80969457806 0.103449078004 12.4080563255 0.947227175962 -5.88876327926 -42.2429100164 -0.341618554764 0.380151947421 4.55826334639 1.62965592193 2.15839591334 1.22691168309 1.24228483808 75.5140591995 -12.0598584043 4.07891426714 12.1987921359 23.6734612765 -4.16765763436 -81.4314482284 -15.5453397962 -15.6247390378 -15.7943855688 52.5453317189 8.23750269094 -0.967691276489 -14.7520389373 -0.348694177177 -0.402269700779 3.57794251652 9.17603983857 -2.74462080452 -22.9417140824 0.400151701806 
-0.03715512 0.963985530495 0.0740918 0.491585683317 3.49041769773 174.765266067 4.67053799597 11.491312604 -3.53219006748 0.132806144861 13.458029717 1.90492652603 -4.48290330796 -41.6840536932 -0.2469128326 -0.542639052846 3.75362181216 1.49721257751 2.40251413135 1.52723446056 1.06867967879 75.0157627486 -12.881622369 3.54416893862 12.4989302849 25.1766697996 -5.42666384275 -80.898905209 -17.0418410736 -14.9042804388 -15.3549192448 54.4554419316 8.52784976369 -1.54161702468 -14.081121408 -0.482189050566 -0.564556116037 4.45407777523 8.99428765098 -3.27685902672 -21.447430909 0.514530316452 
-0.03850132 0.964864370495 0.05103876 -0.0901082844816 3.52533533231 174.957030458 3.57863428662 11.9811387665 -4.57966958614 0.199585371284 15.133344493 3.22173897324 -2.63708908099 -40.463444247 -0.129728464289 -1.78308587635 3.22337928585 1.3706689157 2.8114638105 1.55451114118 0.8933288192 74.5468497715 -13.5024199702 2.68095938603 12.4425675638 25.5865494517 -5.75755619907 -80.6783105894 -18.5035135088 -14.4542819631 -14.7996914596 56.3552214832 8.85285065497 -2.0337219091 -13.2676783212 -0.249766677734 -1.17581952022 5.6503418659 8.50794232358 -4.16716927584 -21.7884349335 0.652840206401 
-0.040386 0.965890530495 0.02852928 -0.514076215593 3.77004414825 175.070507221 2.44340177816 12.2950295014 -6.01464323877 0.351294131374 17.5177225511 5.20521843769 -1.68616186349 -38.5988026036 -0.0573232030428 -2.54455944109 3.01161225885 1.39222317845 2.84614196158 1.50859690203 0.940325910136 74.2701792988 -13.9273490903 1.55417763585 11.9407091693 24.6370370438 -5.05049885817 -80.6313120577 -19.5403772059 -14.2669469496 -14.3362101905 57.7484366399 9.11726435321 -2.41831705466 -12.4891742134 0.118299329992 -1.82321377133 7.47170700384 7.73900816456 -4.41851938352 -23.5564191549 0.6369837088 
-0.04354322 0.966289310495 0.0072771 -0.510040374207 4.07170372181 174.873729471 1.26707799788 12.0880295195 -7.93145813593 0.660514777707 20.7756766815 7.80614294768 -0.131822904445 -36.3688107264 -0.041355328001 -2.27382141456 3.01071110076 1.54222918039 2.25060752256 1.45317600005 1.21008924733 74.2296694468 -14.0801463985 0.538285714385 11.2830165937 22.9913285765 -3.69801681524 -80.5650387322 -19.8052348665 -14.1003441216 -14.2206152152 58.1004509294 9.18761359412 -2.55577695958 -11.8394746667 0.547446598887 -2.2582665125 9.57595339089 7.22215921233 -3.86340472335 -25.5839864232 0.494150899598 
-0.04780026 0.965334270495 -0.01211834 -0.199054123972 4.26903983976 174.323393809 -0.329679944384 10.8992248492 -10.2189627673 1.05130559853 25.3185020928 10.8724727057 5.60152436947 -33.7008910253 -0.325262226054 -1.32484261524 3.28675810527 1.7565902919 1.32779218975 1.12557024538 1.58320551293 74.2881700171 -13.7808005515 -0.0347334629357 10.8002135732 21.5344406888 -2.16391193143 -80.3535624151 -19.1507524798 -13.6829939501 -14.6008527001 57.2128132052 9.01101307671 -2.45667923902 -11.4183841129 1.03549701898 -2.54146664605 11.7873825215 7.14012778662 -3.07540643914 -27.6027888513 0.345302347924 
-0.05221224 0.962839990495 -0.02903982 0.0747924257013 4.48238720179 173.530026355 -2.58195301925 8.77603749379 -11.9741301387 1.44611966759 31.1856636181 13.5538752003 15.4125045697 -30.1584612236 -1.36406956558 -0.570550620889 4.06951891505 2.00365392227 0.616808343848 0.401966904619 1.95084802225 74.3450518325 -12.9525214401 -0.0436795900157 10.5184119209 20.523892003 -0.531112681735 -80.1206802852 -17.7734277582 -13.0904665019 -15.3212173839 55.2361701198 8.65315470666 -2.3692363825 -11.1827425865 1.48398154059 -2.78088099816 14.1516004225 7.34745305624 -2.62698061446 -29.8666755422 0.252656328001 
-0.05582158 0.959339870495 -0.043561 0.203441920205 4.93499267535 172.710731504 -4.93857895155 6.16466322125 -12.444404031 1.7464072269 37.6870713872 14.7802749394 23.6343020944 -26.3602220544 -2.91837505403 -0.459291641787 5.32937804331 2.23175235847 0.405350329538 -0.356731228757 2.2234432199 74.4894556919 -11.8557493 0.493357210272 10.2223428571 19.7151429638 1.35079509293 -80.1390944752 -16.1419414523 -12.8064954107 -16.0324654727 52.8002582844 8.26889509414 -2.45654967887 -10.9051679675 1.77893461544 -2.94504993095 16.5872305126 7.72260546527 -2.52158140406 -32.2054552574 0.201739202069 
-0.05827522 0.956441730495 -0.0570611 0.398380575057 5.59253669429 172.083583534 -6.5147432865 3.42804441023 -11.6839999244 1.84802699481 43.6255042289 14.1137406839 25.4593644991 -24.272841112 -3.66453693548 -0.691091506909 6.64790380078 2.33953893343 0.578627533026 -0.710223293661 2.30827737104 74.8779431915 -10.9429508665 1.50420829204 9.76128545137 18.9770505239 3.38285886689 -80.5025425013 -14.6922372161 -13.2750549255 -16.5121377053 50.8420020682 7.99730115953 -2.58392822458 -10.2448056418 1.93048957621 -2.94333747446 18.5510277197 8.11634281903 -2.32126476231 -34.0815135621 0.158528770677 
-0.05985256 0.955674650495 -0.07106412 0.852884761164 6.22439237177 171.811099968 -6.9388608948 0.843134932928 -10.3211295907 1.58327744336 47.6778793692 11.3141989686 22.2982436682 -25.0344977045 -3.05802787657 -0.775504374118 7.68658731645 2.2216727068 0.888454678814 -0.697417222576 2.13135796918 75.5430260317 -10.3271546713 2.82611008396 9.20224385932 18.2084920253 5.24238918093 -81.0518877861 -13.5677806117 -14.4916943243 -16.7959508483 49.9033872272 7.87570500929 -2.54012686176 -9.06721358075 2.02764752305 -2.75826496116 19.5835354637 8.24104243648 -1.74216631975 -35.3211587455 0.118883631331 
-0.06098032 0.956906550495 -0.08583676 1.52939589527 6.71044955056 171.987045641 -6.47259931177 -1.34857336046 -8.87257709507 0.872018308824 49.0572633928 6.59380955633 18.4358519473 -27.4771099554 -2.08306661076 -0.591210075499 8.47645344396 1.86912438194 1.23199707909 -0.691593365731 1.7059242688 76.3248914464 -9.42086796937 4.14082651687 8.68596010524 16.8585853906 6.90803795863 -81.5989859386 -12.6669307403 -16.101727006 -17.0084858447 49.787335483 7.85748035703 -2.28757549456 -7.58422924778 2.12752025664 -2.46920964794 19.846847794 7.88282633527 -0.98926613653 -36.1905803551 0.0921867630729 
-0.06181598 0.958867430495 -0.10072878 2.24233232149 7.08588455867 172.524581528 -5.54685083959 -3.14487415875 -7.33931403207 -0.0107200719488 47.9986421281 1.46060084257 15.6375712557 -29.6262528834 -1.43871787696 -0.347733895269 9.16123540354 1.41940935906 1.64957830308 -0.879316259231 1.17133795563 76.9745722101 -7.60189723961 5.10437539035 8.24671490859 14.6162137955 8.70685536146 -82.0862652943 -11.8346781664 -17.763184182 -17.1995245283 49.9709992698 7.87573318382 -1.92146775009 -6.07585667477 2.24773286669 -2.19193833202 19.7786090815 7.15086057513 -0.433989206006 -36.9178896338 0.0819265049285 
-0.06228842 0.960736870495 -0.11548364 2.83294005969 7.36810157187 173.116690628 -4.42170481299 -4.75291007736 -5.45080002373 -0.724061043476 45.2540091573 -3.02301696721 12.9138198807 -30.9193545424 -1.02765041228 -0.262820636661 9.71696350008 1.06173380329 2.166961184 -1.12941244023 0.713338606975 77.3508473315 -4.36269325923 5.61721800974 7.75938859527 11.5932881821 10.8644600401 -82.5004889468 -10.9608766979 -19.2881997916 -17.3758065881 50.0185271411 7.8779367736 -1.54983086077 -4.62947191047 2.39441630176 -2.01052808078 19.552314669 6.39294692633 -0.176149458117 -37.5539885663 0.0821161760801 
-0.06242812 0.962329450495 -0.13026644 3.23809044611 7.52752928616 173.477652465 -3.25060271234 -6.30213785377 -3.16705839973 -1.24093512867 41.3349490644 -6.98956608477 10.3938079261 -31.9458568426 -0.725126019378 -0.364942103315 10.0480406984 0.879389256878 2.69837209955 -1.26266526879 0.425303286455 77.5129003997 -0.124470832794 5.88359282605 7.14814770937 8.53673498603 13.067495722 -82.7558355689 -10.011930342 -20.5531474108 -17.5632321016 49.6048806397 7.82459128863 -1.26884936476 -3.2379094461 2.54516583382 -1.92210103669 19.1678825942 5.88576141112 -0.0843658562978 -38.1563839303 0.0858421176435 
